<?xml version="1.0" encoding="UTF-8" standalone="no"?>
<!DOCTYPE svg PUBLIC "-//W3C//DTD SVG 1.1//EN"
 "http://www.w3.org/Graphics/SVG/1.1/DTD/svg11.dtd">
<!-- Generated by graphviz version 2.43.0 (0)
 -->
<!-- Title: %3 Pages: 1 -->
<svg width="306pt" height="480pt"
 viewBox="0.00 0.00 306.09 479.68" xmlns="http://www.w3.org/2000/svg" xmlns:xlink="http://www.w3.org/1999/xlink">
<g id="graph0" class="graph" transform="scale(1 1) rotate(0) translate(4 475.68)">
<title>%3</title>
<polygon fill="white" stroke="transparent" points="-4,4 -4,-475.68 302.09,-475.68 302.09,4 -4,4"/>
<!-- &#45;5238922013323082037 -->
<g id="node1" class="node">
<title>&#45;5238922013323082037</title>
<polygon fill="none" stroke="black" points="57.55,-36 3.55,-36 3.55,0 57.55,0 57.55,-36"/>
<text text-anchor="middle" x="30.55" y="-14.3" font-family="Helvetica,sans-Serif" font-size="14.00">(0, 0)</text>
</g>
<!-- &#45;6451827546521567352 -->
<g id="node5" class="node">
<title>&#45;6451827546521567352</title>
<ellipse fill="none" stroke="black" cx="30.55" cy="-102.55" rx="30.59" ry="30.59"/>
<text text-anchor="middle" x="30.55" y="-98.85" font-family="Helvetica,sans-Serif" font-size="14.00">sum</text>
</g>
<!-- &#45;5238922013323082037&#45;&gt;&#45;6451827546521567352 -->
<g id="edge2" class="edge">
<title>&#45;5238922013323082037&#45;&gt;&#45;6451827546521567352</title>
<path fill="none" stroke="black" d="M30.55,-36.1C30.55,-43.58 30.55,-52.7 30.55,-61.72"/>
<polygon fill="black" stroke="black" points="27.05,-61.78 30.55,-71.78 34.05,-61.78 27.05,-61.78"/>
</g>
<!-- 8314748031413773213 -->
<g id="node2" class="node">
<title>8314748031413773213</title>
<polygon fill="none" stroke="black" points="136.55,-36 82.55,-36 82.55,0 136.55,0 136.55,-36"/>
<text text-anchor="middle" x="109.55" y="-14.3" font-family="Helvetica,sans-Serif" font-size="14.00">(0, 1)</text>
</g>
<!-- 632894664050125223 -->
<g id="node7" class="node">
<title>632894664050125223</title>
<ellipse fill="none" stroke="black" cx="109.55" cy="-102.55" rx="30.59" ry="30.59"/>
<text text-anchor="middle" x="109.55" y="-98.85" font-family="Helvetica,sans-Serif" font-size="14.00">sum</text>
</g>
<!-- 8314748031413773213&#45;&gt;632894664050125223 -->
<g id="edge4" class="edge">
<title>8314748031413773213&#45;&gt;632894664050125223</title>
<path fill="none" stroke="black" d="M109.55,-36.1C109.55,-43.58 109.55,-52.7 109.55,-61.72"/>
<polygon fill="black" stroke="black" points="106.05,-61.78 109.55,-71.78 113.05,-61.78 106.05,-61.78"/>
</g>
<!-- 5100624626379351797 -->
<g id="node3" class="node">
<title>5100624626379351797</title>
<polygon fill="none" stroke="black" points="215.55,-36 161.55,-36 161.55,0 215.55,0 215.55,-36"/>
<text text-anchor="middle" x="188.55" y="-14.3" font-family="Helvetica,sans-Serif" font-size="14.00">(1, 0)</text>
</g>
<!-- 7486606713409147729 -->
<g id="node9" class="node">
<title>7486606713409147729</title>
<ellipse fill="none" stroke="black" cx="188.55" cy="-102.55" rx="30.59" ry="30.59"/>
<text text-anchor="middle" x="188.55" y="-98.85" font-family="Helvetica,sans-Serif" font-size="14.00">sum</text>
</g>
<!-- 5100624626379351797&#45;&gt;7486606713409147729 -->
<g id="edge6" class="edge">
<title>5100624626379351797&#45;&gt;7486606713409147729</title>
<path fill="none" stroke="black" d="M188.55,-36.1C188.55,-43.58 188.55,-52.7 188.55,-61.72"/>
<polygon fill="black" stroke="black" points="185.05,-61.78 188.55,-71.78 192.05,-61.78 185.05,-61.78"/>
</g>
<!-- &#45;6838478691228201394 -->
<g id="node4" class="node">
<title>&#45;6838478691228201394</title>
<polygon fill="none" stroke="black" points="294.55,-36 240.55,-36 240.55,0 294.55,0 294.55,-36"/>
<text text-anchor="middle" x="267.55" y="-14.3" font-family="Helvetica,sans-Serif" font-size="14.00">(1, 1)</text>
</g>
<!-- &#45;3875415149728711312 -->
<g id="node11" class="node">
<title>&#45;3875415149728711312</title>
<ellipse fill="none" stroke="black" cx="267.55" cy="-102.55" rx="30.59" ry="30.59"/>
<text text-anchor="middle" x="267.55" y="-98.85" font-family="Helvetica,sans-Serif" font-size="14.00">sum</text>
</g>
<!-- &#45;6838478691228201394&#45;&gt;&#45;3875415149728711312 -->
<g id="edge8" class="edge">
<title>&#45;6838478691228201394&#45;&gt;&#45;3875415149728711312</title>
<path fill="none" stroke="black" d="M267.55,-36.1C267.55,-43.58 267.55,-52.7 267.55,-61.72"/>
<polygon fill="black" stroke="black" points="264.05,-61.78 267.55,-71.78 271.05,-61.78 264.05,-61.78"/>
</g>
<!-- 6042243558509086869 -->
<g id="node6" class="node">
<title>6042243558509086869</title>
<polygon fill="none" stroke="black" points="64.55,-205.09 10.55,-205.09 10.55,-169.09 64.55,-169.09 64.55,-205.09"/>
<text text-anchor="middle" x="37.55" y="-183.39" font-family="Helvetica,sans-Serif" font-size="14.00">(0, 0)</text>
</g>
<!-- &#45;6451827546521567352&#45;&gt;6042243558509086869 -->
<g id="edge1" class="edge">
<title>&#45;6451827546521567352&#45;&gt;6042243558509086869</title>
<path fill="none" stroke="black" d="M33.07,-133.35C33.78,-141.7 34.55,-150.73 35.24,-158.91"/>
<polygon fill="black" stroke="black" points="31.77,-159.4 36.1,-169.07 38.75,-158.81 31.77,-159.4"/>
</g>
<!-- &#45;6940550410496035930 -->
<g id="node13" class="node">
<title>&#45;6940550410496035930</title>
<ellipse fill="none" stroke="black" cx="148.55" cy="-320.39" rx="79.09" ry="79.09"/>
<text text-anchor="middle" x="148.55" y="-316.69" font-family="Helvetica,sans-Serif" font-size="14.00">sum&#45;aggregate</text>
</g>
<!-- 6042243558509086869&#45;&gt;&#45;6940550410496035930 -->
<g id="edge12" class="edge">
<title>6042243558509086869&#45;&gt;&#45;6940550410496035930</title>
<path fill="none" stroke="black" d="M52.06,-205.26C62.25,-217.31 76.61,-234.3 91.14,-251.49"/>
<polygon fill="black" stroke="black" points="88.69,-254.01 97.82,-259.38 94.03,-249.49 88.69,-254.01"/>
</g>
<!-- &#45;5896859759098466322 -->
<g id="node8" class="node">
<title>&#45;5896859759098466322</title>
<polygon fill="none" stroke="black" points="139.55,-205.09 85.55,-205.09 85.55,-169.09 139.55,-169.09 139.55,-205.09"/>
<text text-anchor="middle" x="112.55" y="-183.39" font-family="Helvetica,sans-Serif" font-size="14.00">(0, 1)</text>
</g>
<!-- 632894664050125223&#45;&gt;&#45;5896859759098466322 -->
<g id="edge3" class="edge">
<title>632894664050125223&#45;&gt;&#45;5896859759098466322</title>
<path fill="none" stroke="black" d="M110.63,-133.35C110.93,-141.7 111.26,-150.73 111.56,-158.91"/>
<polygon fill="black" stroke="black" points="108.07,-159.2 111.93,-169.07 115.06,-158.95 108.07,-159.2"/>
</g>
<!-- &#45;5896859759098466322&#45;&gt;&#45;6940550410496035930 -->
<g id="edge13" class="edge">
<title>&#45;5896859759098466322&#45;&gt;&#45;6940550410496035930</title>
<path fill="none" stroke="black" d="M117.25,-205.26C119.42,-213.16 122.17,-223.18 125.13,-233.99"/>
<polygon fill="black" stroke="black" points="121.76,-234.94 127.78,-243.66 128.51,-233.09 121.76,-234.94"/>
</g>
<!-- 3605185711768841176 -->
<g id="node10" class="node">
<title>3605185711768841176</title>
<polygon fill="none" stroke="black" points="213.55,-205.09 159.55,-205.09 159.55,-169.09 213.55,-169.09 213.55,-205.09"/>
<text text-anchor="middle" x="186.55" y="-183.39" font-family="Helvetica,sans-Serif" font-size="14.00">(1, 0)</text>
</g>
<!-- 7486606713409147729&#45;&gt;3605185711768841176 -->
<g id="edge5" class="edge">
<title>7486606713409147729&#45;&gt;3605185711768841176</title>
<path fill="none" stroke="black" d="M187.83,-133.35C187.62,-141.7 187.4,-150.73 187.21,-158.91"/>
<polygon fill="black" stroke="black" points="183.7,-158.98 186.96,-169.07 190.7,-159.15 183.7,-158.98"/>
</g>
<!-- 3605185711768841176&#45;&gt;&#45;6940550410496035930 -->
<g id="edge10" class="edge">
<title>3605185711768841176&#45;&gt;&#45;6940550410496035930</title>
<path fill="none" stroke="black" d="M181.58,-205.26C179.28,-213.22 176.35,-223.32 173.2,-234.21"/>
<polygon fill="black" stroke="black" points="169.8,-233.37 170.38,-243.95 176.52,-235.32 169.8,-233.37"/>
</g>
<!-- &#45;8333917605838712015 -->
<g id="node12" class="node">
<title>&#45;8333917605838712015</title>
<polygon fill="none" stroke="black" points="289.55,-205.09 235.55,-205.09 235.55,-169.09 289.55,-169.09 289.55,-205.09"/>
<text text-anchor="middle" x="262.55" y="-183.39" font-family="Helvetica,sans-Serif" font-size="14.00">(1, 1)</text>
</g>
<!-- &#45;3875415149728711312&#45;&gt;&#45;8333917605838712015 -->
<g id="edge7" class="edge">
<title>&#45;3875415149728711312&#45;&gt;&#45;8333917605838712015</title>
<path fill="none" stroke="black" d="M265.74,-133.35C265.24,-141.7 264.69,-150.73 264.19,-158.91"/>
<polygon fill="black" stroke="black" points="260.69,-158.87 263.58,-169.07 267.68,-159.3 260.69,-158.87"/>
</g>
<!-- &#45;8333917605838712015&#45;&gt;&#45;6940550410496035930 -->
<g id="edge11" class="edge">
<title>&#45;8333917605838712015&#45;&gt;&#45;6940550410496035930</title>
<path fill="none" stroke="black" d="M247.64,-205.26C237.07,-217.43 222.13,-234.64 207.06,-252"/>
<polygon fill="black" stroke="black" points="204.05,-250.13 200.13,-259.98 209.33,-254.72 204.05,-250.13"/>
</g>
<!-- &#45;3295828445084214285 -->
<g id="node14" class="node">
<title>&#45;3295828445084214285</title>
<polygon fill="none" stroke="black" points="175.55,-471.68 121.55,-471.68 121.55,-435.68 175.55,-435.68 175.55,-471.68"/>
<text text-anchor="middle" x="148.55" y="-449.98" font-family="Helvetica,sans-Serif" font-size="14.00">()</text>
</g>
<!-- &#45;6940550410496035930&#45;&gt;&#45;3295828445084214285 -->
<g id="edge9" class="edge">
<title>&#45;6940550410496035930&#45;&gt;&#45;3295828445084214285</title>
<path fill="none" stroke="black" d="M148.55,-400.04C148.55,-409.09 148.55,-417.81 148.55,-425.45"/>
<polygon fill="black" stroke="black" points="145.05,-425.46 148.55,-435.46 152.05,-425.46 145.05,-425.46"/>
</g>
</g>
</svg>
