<?xml version="1.0" encoding="UTF-8" standalone="no"?>
<!DOCTYPE svg PUBLIC "-//W3C//DTD SVG 1.1//EN"
 "http://www.w3.org/Graphics/SVG/1.1/DTD/svg11.dtd">
<!-- Generated by graphviz version 2.43.0 (0)
 -->
<!-- Title: %3 Pages: 1 -->
<svg width="828pt" height="496pt"
 viewBox="0.00 0.00 828.19 496.18" xmlns="http://www.w3.org/2000/svg" xmlns:xlink="http://www.w3.org/1999/xlink">
<g id="graph0" class="graph" transform="scale(1 1) rotate(0) translate(4 492.18)">
<title>%3</title>
<polygon fill="white" stroke="transparent" points="-4,4 -4,-492.18 824.19,-492.18 824.19,4 -4,4"/>
<!-- 6526748267644155767 -->
<g id="node1" class="node">
<title>6526748267644155767</title>
<ellipse fill="none" stroke="black" cx="390.6" cy="-385.63" rx="30.59" ry="30.59"/>
<text text-anchor="middle" x="390.6" y="-381.93" font-family="Helvetica,sans-Serif" font-size="14.00">sum</text>
</g>
<!-- &#45;8600526369801701043 -->
<g id="node2" class="node">
<title>&#45;8600526369801701043</title>
<polygon fill="none" stroke="black" points="417.6,-488.18 363.6,-488.18 363.6,-452.18 417.6,-452.18 417.6,-488.18"/>
</g>
<!-- 6526748267644155767&#45;&gt;&#45;8600526369801701043 -->
<g id="edge1" class="edge">
<title>6526748267644155767&#45;&gt;&#45;8600526369801701043</title>
<path fill="none" stroke="black" d="M390.6,-416.44C390.6,-424.79 390.6,-433.81 390.6,-442"/>
<polygon fill="black" stroke="black" points="387.1,-442.15 390.6,-452.15 394.1,-442.15 387.1,-442.15"/>
</g>
<!-- 7518817019987629025 -->
<g id="node3" class="node">
<title>7518817019987629025</title>
<polygon fill="none" stroke="black" points="197.6,-319.09 143.6,-319.09 143.6,-283.09 197.6,-283.09 197.6,-319.09"/>
</g>
<!-- 7518817019987629025&#45;&gt;6526748267644155767 -->
<g id="edge2" class="edge">
<title>7518817019987629025&#45;&gt;6526748267644155767</title>
<path fill="none" stroke="black" d="M198.01,-312.38C236.99,-327 308.58,-353.86 352.64,-370.39"/>
<polygon fill="black" stroke="black" points="351.54,-373.72 362.13,-373.96 354,-367.17 351.54,-373.72"/>
</g>
<!-- &#45;7417028627861955671 -->
<g id="node4" class="node">
<title>&#45;7417028627861955671</title>
<polygon fill="none" stroke="black" points="308.6,-319.09 254.6,-319.09 254.6,-283.09 308.6,-283.09 308.6,-319.09"/>
</g>
<!-- &#45;7417028627861955671&#45;&gt;6526748267644155767 -->
<g id="edge3" class="edge">
<title>&#45;7417028627861955671&#45;&gt;6526748267644155767</title>
<path fill="none" stroke="black" d="M304.18,-319.19C319.83,-331.04 340.9,-347 358.31,-360.19"/>
<polygon fill="black" stroke="black" points="356.44,-363.16 366.53,-366.41 360.67,-357.58 356.44,-363.16"/>
</g>
<!-- &#45;2312582595374497265 -->
<g id="node5" class="node">
<title>&#45;2312582595374497265</title>
<polygon fill="none" stroke="black" points="417.6,-319.09 363.6,-319.09 363.6,-283.09 417.6,-283.09 417.6,-319.09"/>
</g>
<!-- &#45;2312582595374497265&#45;&gt;6526748267644155767 -->
<g id="edge4" class="edge">
<title>&#45;2312582595374497265&#45;&gt;6526748267644155767</title>
<path fill="none" stroke="black" d="M390.6,-319.19C390.6,-326.67 390.6,-335.79 390.6,-344.81"/>
<polygon fill="black" stroke="black" points="387.1,-344.86 390.6,-354.86 394.1,-344.86 387.1,-344.86"/>
</g>
<!-- 7061215224957626927 -->
<g id="node6" class="node">
<title>7061215224957626927</title>
<polygon fill="none" stroke="black" points="545.6,-319.09 491.6,-319.09 491.6,-283.09 545.6,-283.09 545.6,-319.09"/>
</g>
<!-- 7061215224957626927&#45;&gt;6526748267644155767 -->
<g id="edge5" class="edge">
<title>7061215224957626927&#45;&gt;6526748267644155767</title>
<path fill="none" stroke="black" d="M492.07,-319.19C472.6,-331.75 445.97,-348.93 424.87,-362.53"/>
<polygon fill="black" stroke="black" points="422.72,-359.76 416.21,-368.12 426.51,-365.64 422.72,-359.76"/>
</g>
<!-- 189691293153650839 -->
<g id="node7" class="node">
<title>189691293153650839</title>
<polygon fill="none" stroke="black" points="684.6,-319.09 630.6,-319.09 630.6,-283.09 684.6,-283.09 684.6,-319.09"/>
</g>
<!-- 189691293153650839&#45;&gt;6526748267644155767 -->
<g id="edge6" class="edge">
<title>189691293153650839&#45;&gt;6526748267644155767</title>
<path fill="none" stroke="black" d="M630.53,-310.46C582.97,-325.16 484.3,-355.67 429.47,-372.62"/>
<polygon fill="black" stroke="black" points="428.28,-369.32 419.76,-375.62 430.35,-376.01 428.28,-369.32"/>
</g>
<!-- 7739301698301875280 -->
<g id="node8" class="node">
<title>7739301698301875280</title>
<ellipse fill="none" stroke="black" cx="694.6" cy="-219.14" rx="27.9" ry="27.9"/>
<text text-anchor="middle" x="694.6" y="-215.44" font-family="Helvetica,sans-Serif" font-size="14.00">add</text>
</g>
<!-- 7739301698301875280&#45;&gt;189691293153650839 -->
<g id="edge7" class="edge">
<title>7739301698301875280&#45;&gt;189691293153650839</title>
<path fill="none" stroke="black" d="M683.09,-245C678.87,-254.12 674.08,-264.46 669.8,-273.71"/>
<polygon fill="black" stroke="black" points="666.6,-272.3 665.57,-282.85 672.95,-275.24 666.6,-272.3"/>
</g>
<!-- 2214504381903850059 -->
<g id="node9" class="node">
<title>2214504381903850059</title>
<polygon fill="none" stroke="black" points="721.6,-155.19 667.6,-155.19 667.6,-119.19 721.6,-119.19 721.6,-155.19"/>
</g>
<!-- 2214504381903850059&#45;&gt;7739301698301875280 -->
<g id="edge8" class="edge">
<title>2214504381903850059&#45;&gt;7739301698301875280</title>
<path fill="none" stroke="black" d="M694.6,-155.54C694.6,-163 694.6,-172.03 694.6,-180.88"/>
<polygon fill="black" stroke="black" points="691.1,-181.08 694.6,-191.08 698.1,-181.08 691.1,-181.08"/>
</g>
<!-- &#45;3915150420443210385 -->
<g id="node10" class="node">
<title>&#45;3915150420443210385</title>
<polygon fill="none" stroke="black" points="799.6,-155.19 745.6,-155.19 745.6,-119.19 799.6,-119.19 799.6,-155.19"/>
</g>
<!-- &#45;3915150420443210385&#45;&gt;7739301698301875280 -->
<g id="edge9" class="edge">
<title>&#45;3915150420443210385&#45;&gt;7739301698301875280</title>
<path fill="none" stroke="black" d="M755.67,-155.54C745.53,-165.94 732.41,-179.38 720.94,-191.14"/>
<polygon fill="black" stroke="black" points="718.16,-188.98 713.68,-198.58 723.17,-193.87 718.16,-188.98"/>
</g>
<!-- 2932389837303578914 -->
<g id="node11" class="node">
<title>2932389837303578914</title>
<ellipse fill="none" stroke="black" cx="694.6" cy="-41.6" rx="24.1" ry="24.1"/>
<text text-anchor="middle" x="694.6" y="-37.9" font-family="Helvetica,sans-Serif" font-size="14.00">inc</text>
</g>
<!-- 2932389837303578914&#45;&gt;2214504381903850059 -->
<g id="edge10" class="edge">
<title>2932389837303578914&#45;&gt;2214504381903850059</title>
<path fill="none" stroke="black" d="M694.6,-65.73C694.6,-78.72 694.6,-95 694.6,-108.64"/>
<polygon fill="black" stroke="black" points="691.1,-108.9 694.6,-118.9 698.1,-108.9 691.1,-108.9"/>
</g>
<!-- 1060299709000779669 -->
<g id="node12" class="node">
<title>1060299709000779669</title>
<ellipse fill="none" stroke="black" cx="778.6" cy="-41.6" rx="41.69" ry="41.69"/>
<text text-anchor="middle" x="778.6" y="-37.9" font-family="Helvetica,sans-Serif" font-size="14.00">double</text>
</g>
<!-- 1060299709000779669&#45;&gt;&#45;3915150420443210385 -->
<g id="edge11" class="edge">
<title>1060299709000779669&#45;&gt;&#45;3915150420443210385</title>
<path fill="none" stroke="black" d="M775.98,-83.38C775.43,-91.91 774.87,-100.72 774.36,-108.63"/>
<polygon fill="black" stroke="black" points="770.86,-108.57 773.71,-118.77 777.85,-109.01 770.86,-108.57"/>
</g>
<!-- &#45;8206700425167635519 -->
<g id="node13" class="node">
<title>&#45;8206700425167635519</title>
<ellipse fill="none" stroke="black" cx="275.6" cy="-219.14" rx="27.9" ry="27.9"/>
<text text-anchor="middle" x="275.6" y="-215.44" font-family="Helvetica,sans-Serif" font-size="14.00">add</text>
</g>
<!-- &#45;8206700425167635519&#45;&gt;&#45;7417028627861955671 -->
<g id="edge12" class="edge">
<title>&#45;8206700425167635519&#45;&gt;&#45;7417028627861955671</title>
<path fill="none" stroke="black" d="M277.63,-247.21C278.24,-255.4 278.92,-264.39 279.53,-272.61"/>
<polygon fill="black" stroke="black" points="276.06,-273.12 280.3,-282.83 283.04,-272.59 276.06,-273.12"/>
</g>
<!-- &#45;5023792451912454681 -->
<g id="node14" class="node">
<title>&#45;5023792451912454681</title>
<polygon fill="none" stroke="black" points="227.6,-155.19 173.6,-155.19 173.6,-119.19 227.6,-119.19 227.6,-155.19"/>
</g>
<!-- &#45;5023792451912454681&#45;&gt;&#45;8206700425167635519 -->
<g id="edge13" class="edge">
<title>&#45;5023792451912454681&#45;&gt;&#45;8206700425167635519</title>
<path fill="none" stroke="black" d="M216.87,-155.54C226.55,-165.86 239.05,-179.19 250.03,-190.89"/>
<polygon fill="black" stroke="black" points="247.58,-193.39 256.98,-198.29 252.69,-188.6 247.58,-193.39"/>
</g>
<!-- 1760660962940379927 -->
<g id="node15" class="node">
<title>1760660962940379927</title>
<polygon fill="none" stroke="black" points="302.6,-155.19 248.6,-155.19 248.6,-119.19 302.6,-119.19 302.6,-155.19"/>
</g>
<!-- 1760660962940379927&#45;&gt;&#45;8206700425167635519 -->
<g id="edge14" class="edge">
<title>1760660962940379927&#45;&gt;&#45;8206700425167635519</title>
<path fill="none" stroke="black" d="M275.6,-155.54C275.6,-163 275.6,-172.03 275.6,-180.88"/>
<polygon fill="black" stroke="black" points="272.1,-181.08 275.6,-191.08 279.1,-181.08 272.1,-181.08"/>
</g>
<!-- 6760085860174716615 -->
<g id="node16" class="node">
<title>6760085860174716615</title>
<ellipse fill="none" stroke="black" cx="191.6" cy="-41.6" rx="24.1" ry="24.1"/>
<text text-anchor="middle" x="191.6" y="-37.9" font-family="Helvetica,sans-Serif" font-size="14.00">inc</text>
</g>
<!-- 6760085860174716615&#45;&gt;&#45;5023792451912454681 -->
<g id="edge15" class="edge">
<title>6760085860174716615&#45;&gt;&#45;5023792451912454681</title>
<path fill="none" stroke="black" d="M193.82,-65.73C195.07,-78.72 196.64,-95 197.95,-108.64"/>
<polygon fill="black" stroke="black" points="194.49,-109.28 198.93,-118.9 201.46,-108.61 194.49,-109.28"/>
</g>
<!-- &#45;2203318347046397492 -->
<g id="node17" class="node">
<title>&#45;2203318347046397492</title>
<ellipse fill="none" stroke="black" cx="275.6" cy="-41.6" rx="41.69" ry="41.69"/>
<text text-anchor="middle" x="275.6" y="-37.9" font-family="Helvetica,sans-Serif" font-size="14.00">double</text>
</g>
<!-- &#45;2203318347046397492&#45;&gt;1760660962940379927 -->
<g id="edge16" class="edge">
<title>&#45;2203318347046397492&#45;&gt;1760660962940379927</title>
<path fill="none" stroke="black" d="M275.6,-83.38C275.6,-91.91 275.6,-100.72 275.6,-108.63"/>
<polygon fill="black" stroke="black" points="272.1,-108.77 275.6,-118.77 279.1,-108.77 272.1,-108.77"/>
</g>
<!-- 6410775283452159840 -->
<g id="node18" class="node">
<title>6410775283452159840</title>
<ellipse fill="none" stroke="black" cx="390.6" cy="-219.14" rx="27.9" ry="27.9"/>
<text text-anchor="middle" x="390.6" y="-215.44" font-family="Helvetica,sans-Serif" font-size="14.00">add</text>
</g>
<!-- 6410775283452159840&#45;&gt;&#45;2312582595374497265 -->
<g id="edge17" class="edge">
<title>6410775283452159840&#45;&gt;&#45;2312582595374497265</title>
<path fill="none" stroke="black" d="M390.6,-247.21C390.6,-255.4 390.6,-264.39 390.6,-272.61"/>
<polygon fill="black" stroke="black" points="387.1,-272.83 390.6,-282.83 394.1,-272.83 387.1,-272.83"/>
</g>
<!-- &#45;3699052862032513183 -->
<g id="node19" class="node">
<title>&#45;3699052862032513183</title>
<polygon fill="none" stroke="black" points="389.6,-155.19 335.6,-155.19 335.6,-119.19 389.6,-119.19 389.6,-155.19"/>
</g>
<!-- &#45;3699052862032513183&#45;&gt;6410775283452159840 -->
<g id="edge18" class="edge">
<title>&#45;3699052862032513183&#45;&gt;6410775283452159840</title>
<path fill="none" stroke="black" d="M368.67,-155.54C371.49,-163.58 374.94,-173.45 378.27,-182.95"/>
<polygon fill="black" stroke="black" points="375.05,-184.35 381.66,-192.63 381.66,-182.03 375.05,-184.35"/>
</g>
<!-- 7486272835610014593 -->
<g id="node20" class="node">
<title>7486272835610014593</title>
<polygon fill="none" stroke="black" points="464.6,-155.19 410.6,-155.19 410.6,-119.19 464.6,-119.19 464.6,-155.19"/>
</g>
<!-- 7486272835610014593&#45;&gt;6410775283452159840 -->
<g id="edge19" class="edge">
<title>7486272835610014593&#45;&gt;6410775283452159840</title>
<path fill="none" stroke="black" d="M427.4,-155.54C422.18,-164.42 415.65,-175.52 409.55,-185.9"/>
<polygon fill="black" stroke="black" points="406.39,-184.36 404.34,-194.76 412.43,-187.91 406.39,-184.36"/>
</g>
<!-- 7575646714043904497 -->
<g id="node21" class="node">
<title>7575646714043904497</title>
<ellipse fill="none" stroke="black" cx="359.6" cy="-41.6" rx="24.1" ry="24.1"/>
<text text-anchor="middle" x="359.6" y="-37.9" font-family="Helvetica,sans-Serif" font-size="14.00">inc</text>
</g>
<!-- 7575646714043904497&#45;&gt;&#45;3699052862032513183 -->
<g id="edge20" class="edge">
<title>7575646714043904497&#45;&gt;&#45;3699052862032513183</title>
<path fill="none" stroke="black" d="M360.34,-65.73C360.75,-78.72 361.28,-95 361.71,-108.64"/>
<polygon fill="black" stroke="black" points="358.22,-109.02 362.04,-118.9 365.22,-108.8 358.22,-109.02"/>
</g>
<!-- &#45;2649235561851894830 -->
<g id="node22" class="node">
<title>&#45;2649235561851894830</title>
<ellipse fill="none" stroke="black" cx="443.6" cy="-41.6" rx="41.69" ry="41.69"/>
<text text-anchor="middle" x="443.6" y="-37.9" font-family="Helvetica,sans-Serif" font-size="14.00">double</text>
</g>
<!-- &#45;2649235561851894830&#45;&gt;7486272835610014593 -->
<g id="edge21" class="edge">
<title>&#45;2649235561851894830&#45;&gt;7486272835610014593</title>
<path fill="none" stroke="black" d="M440.98,-83.38C440.43,-91.91 439.87,-100.72 439.36,-108.63"/>
<polygon fill="black" stroke="black" points="435.86,-108.57 438.71,-118.77 442.85,-109.01 435.86,-108.57"/>
</g>
<!-- &#45;4930273499072245579 -->
<g id="node23" class="node">
<title>&#45;4930273499072245579</title>
<ellipse fill="none" stroke="black" cx="125.6" cy="-219.14" rx="27.9" ry="27.9"/>
<text text-anchor="middle" x="125.6" y="-215.44" font-family="Helvetica,sans-Serif" font-size="14.00">add</text>
</g>
<!-- &#45;4930273499072245579&#45;&gt;7518817019987629025 -->
<g id="edge22" class="edge">
<title>&#45;4930273499072245579&#45;&gt;7518817019987629025</title>
<path fill="none" stroke="black" d="M139.1,-244.13C144.43,-253.61 150.58,-264.52 156.02,-274.18"/>
<polygon fill="black" stroke="black" points="153.01,-275.98 160.96,-282.97 159.11,-272.54 153.01,-275.98"/>
</g>
<!-- &#45;4916958108706024263 -->
<g id="node24" class="node">
<title>&#45;4916958108706024263</title>
<polygon fill="none" stroke="black" points="74.6,-155.19 20.6,-155.19 20.6,-119.19 74.6,-119.19 74.6,-155.19"/>
</g>
<!-- &#45;4916958108706024263&#45;&gt;&#45;4930273499072245579 -->
<g id="edge23" class="edge">
<title>&#45;4916958108706024263&#45;&gt;&#45;4930273499072245579</title>
<path fill="none" stroke="black" d="M64.52,-155.54C74.67,-165.94 87.78,-179.38 99.26,-191.14"/>
<polygon fill="black" stroke="black" points="97.02,-193.87 106.51,-198.58 102.03,-188.98 97.02,-193.87"/>
</g>
<!-- &#45;7410737951241993729 -->
<g id="node25" class="node">
<title>&#45;7410737951241993729</title>
<polygon fill="none" stroke="black" points="152.6,-155.19 98.6,-155.19 98.6,-119.19 152.6,-119.19 152.6,-155.19"/>
</g>
<!-- &#45;7410737951241993729&#45;&gt;&#45;4930273499072245579 -->
<g id="edge24" class="edge">
<title>&#45;7410737951241993729&#45;&gt;&#45;4930273499072245579</title>
<path fill="none" stroke="black" d="M125.6,-155.54C125.6,-163 125.6,-172.03 125.6,-180.88"/>
<polygon fill="black" stroke="black" points="122.1,-181.08 125.6,-191.08 129.1,-181.08 122.1,-181.08"/>
</g>
<!-- &#45;6766647398654522154 -->
<g id="node26" class="node">
<title>&#45;6766647398654522154</title>
<ellipse fill="none" stroke="black" cx="125.6" cy="-41.6" rx="24.1" ry="24.1"/>
<text text-anchor="middle" x="125.6" y="-37.9" font-family="Helvetica,sans-Serif" font-size="14.00">inc</text>
</g>
<!-- &#45;6766647398654522154&#45;&gt;&#45;7410737951241993729 -->
<g id="edge25" class="edge">
<title>&#45;6766647398654522154&#45;&gt;&#45;7410737951241993729</title>
<path fill="none" stroke="black" d="M125.6,-65.73C125.6,-78.72 125.6,-95 125.6,-108.64"/>
<polygon fill="black" stroke="black" points="122.1,-108.9 125.6,-118.9 129.1,-108.9 122.1,-108.9"/>
</g>
<!-- &#45;5358668264112610833 -->
<g id="node27" class="node">
<title>&#45;5358668264112610833</title>
<ellipse fill="none" stroke="black" cx="41.6" cy="-41.6" rx="41.69" ry="41.69"/>
<text text-anchor="middle" x="41.6" y="-37.9" font-family="Helvetica,sans-Serif" font-size="14.00">double</text>
</g>
<!-- &#45;5358668264112610833&#45;&gt;&#45;4916958108706024263 -->
<g id="edge26" class="edge">
<title>&#45;5358668264112610833&#45;&gt;&#45;4916958108706024263</title>
<path fill="none" stroke="black" d="M44.21,-83.38C44.76,-91.91 45.32,-100.72 45.83,-108.63"/>
<polygon fill="black" stroke="black" points="42.35,-109.01 46.48,-118.77 49.33,-108.57 42.35,-109.01"/>
</g>
<!-- 4671310625181611182 -->
<g id="node28" class="node">
<title>4671310625181611182</title>
<ellipse fill="none" stroke="black" cx="544.6" cy="-219.14" rx="27.9" ry="27.9"/>
<text text-anchor="middle" x="544.6" y="-215.44" font-family="Helvetica,sans-Serif" font-size="14.00">add</text>
</g>
<!-- 4671310625181611182&#45;&gt;7061215224957626927 -->
<g id="edge27" class="edge">
<title>4671310625181611182&#45;&gt;7061215224957626927</title>
<path fill="none" stroke="black" d="M536.23,-245.88C533.41,-254.54 530.26,-264.22 527.41,-272.99"/>
<polygon fill="black" stroke="black" points="524,-272.14 524.24,-282.73 530.66,-274.31 524,-272.14"/>
</g>
<!-- &#45;3544423581519178916 -->
<g id="node29" class="node">
<title>&#45;3544423581519178916</title>
<polygon fill="none" stroke="black" points="571.6,-155.19 517.6,-155.19 517.6,-119.19 571.6,-119.19 571.6,-155.19"/>
</g>
<!-- &#45;3544423581519178916&#45;&gt;4671310625181611182 -->
<g id="edge28" class="edge">
<title>&#45;3544423581519178916&#45;&gt;4671310625181611182</title>
<path fill="none" stroke="black" d="M544.6,-155.54C544.6,-163 544.6,-172.03 544.6,-180.88"/>
<polygon fill="black" stroke="black" points="541.1,-181.08 544.6,-191.08 548.1,-181.08 541.1,-181.08"/>
</g>
<!-- &#45;3116921681752561650 -->
<g id="node30" class="node">
<title>&#45;3116921681752561650</title>
<polygon fill="none" stroke="black" points="646.6,-155.19 592.6,-155.19 592.6,-119.19 646.6,-119.19 646.6,-155.19"/>
</g>
<!-- &#45;3116921681752561650&#45;&gt;4671310625181611182 -->
<g id="edge29" class="edge">
<title>&#45;3116921681752561650&#45;&gt;4671310625181611182</title>
<path fill="none" stroke="black" d="M603.32,-155.54C593.64,-165.86 581.14,-179.19 570.16,-190.89"/>
<polygon fill="black" stroke="black" points="567.5,-188.6 563.22,-198.29 572.61,-193.39 567.5,-188.6"/>
</g>
<!-- &#45;1998397479516041089 -->
<g id="node31" class="node">
<title>&#45;1998397479516041089</title>
<ellipse fill="none" stroke="black" cx="544.6" cy="-41.6" rx="41.69" ry="41.69"/>
<text text-anchor="middle" x="544.6" y="-37.9" font-family="Helvetica,sans-Serif" font-size="14.00">double</text>
</g>
<!-- &#45;1998397479516041089&#45;&gt;&#45;3544423581519178916 -->
<g id="edge30" class="edge">
<title>&#45;1998397479516041089&#45;&gt;&#45;3544423581519178916</title>
<path fill="none" stroke="black" d="M544.6,-83.38C544.6,-91.91 544.6,-100.72 544.6,-108.63"/>
<polygon fill="black" stroke="black" points="541.1,-108.77 544.6,-118.77 548.1,-108.77 541.1,-108.77"/>
</g>
<!-- 8709117166992840377 -->
<g id="node32" class="node">
<title>8709117166992840377</title>
<ellipse fill="none" stroke="black" cx="628.6" cy="-41.6" rx="24.1" ry="24.1"/>
<text text-anchor="middle" x="628.6" y="-37.9" font-family="Helvetica,sans-Serif" font-size="14.00">inc</text>
</g>
<!-- 8709117166992840377&#45;&gt;&#45;3116921681752561650 -->
<g id="edge31" class="edge">
<title>8709117166992840377&#45;&gt;&#45;3116921681752561650</title>
<path fill="none" stroke="black" d="M626.37,-65.73C625.12,-78.72 623.56,-95 622.25,-108.64"/>
<polygon fill="black" stroke="black" points="618.73,-108.61 621.26,-118.9 625.7,-109.28 618.73,-108.61"/>
</g>
</g>
</svg>
